<mxfile host="app.diagrams.net" modified="2024-02-22T08:04:14.716Z" agent="Mozilla/5.0 (Windows NT 10.0; Win64; x64; rv:122.0) Gecko/20100101 Firefox/122.0" etag="gu35sf1uPP2PKI8NT_hj" version="23.1.5" type="github">
  <diagram name="Seite-1" id="UwD1s-Yo2X-NNcLCJ6j_">
    <mxGraphModel dx="1050" dy="511" grid="1" gridSize="10" guides="1" tooltips="1" connect="1" arrows="1" fold="1" page="1" pageScale="1" pageWidth="827" pageHeight="1169" math="0" shadow="0">
      <root>
        <mxCell id="0" />
        <mxCell id="1" parent="0" />
      </root>
    </mxGraphModel>
  </diagram>
</mxfile>
